<svg width="50" height="50" viewBox="0 0 50 50" fill="none" xmlns="http://www.w3.org/2000/svg">
<path d="M5.02539 27V15.9668H8.11182V17.3716H8.55273L7.51709 18.5815C7.87939 17.6792 8.36816 16.9922 8.9834 16.5205C9.59863 16.042 10.3267 15.8027 11.1675 15.8027C11.8647 15.8027 12.4561 15.9736 12.9414 16.3154C13.4336 16.6504 13.8062 17.1357 14.0591 17.7715L13.6079 17.3408H14.1924L13.6182 17.7715C14.0146 17.1152 14.5376 16.623 15.187 16.2949C15.8364 15.9668 16.5439 15.8027 17.3096 15.8027C18.041 15.8027 18.6426 15.9326 19.1143 16.1924C19.5859 16.4453 19.9551 16.7803 20.2217 17.1973C20.4883 17.6074 20.6763 18.0586 20.7856 18.5508C20.895 19.0361 20.9497 19.5078 20.9497 19.9658V27H17.689V20.3657C17.689 19.7642 17.5625 19.3027 17.3096 18.9814C17.0635 18.6533 16.7012 18.4893 16.2227 18.4893C15.9082 18.4893 15.6279 18.561 15.3818 18.7046C15.1426 18.8413 14.9512 19.0498 14.8076 19.3301C14.6709 19.6104 14.6025 19.9556 14.6025 20.3657V27H11.3623V20.3657C11.3623 19.7642 11.2358 19.3027 10.9829 18.9814C10.73 18.6533 10.3643 18.4893 9.88574 18.4893C9.4209 18.4893 9.03467 18.6499 8.72705 18.9712C8.41943 19.2856 8.26562 19.7573 8.26562 20.3862V27H5.02539ZM25.1333 31.4707C24.7163 31.4707 24.2959 31.4297 23.8721 31.3477C23.4482 31.2725 23.0928 31.187 22.8057 31.0913L23.9233 28.4971C24.0806 28.5723 24.2549 28.6338 24.4463 28.6816C24.6377 28.7295 24.8188 28.7534 24.9897 28.7534C25.3315 28.7534 25.605 28.6816 25.8101 28.5381C26.0151 28.4014 26.1689 28.2339 26.2715 28.0356C26.374 27.8374 26.4492 27.6562 26.4971 27.4922L26.9893 25.8208L26.7534 27.5127L22.0469 15.9668H25.4512L27.5327 22.0986L28.0454 23.7085H28.1274L28.5889 22.0986L30.5166 15.9668H33.9004L29.2451 28.2305C29.1221 28.5449 28.9751 28.8901 28.8042 29.2661C28.6333 29.6421 28.4009 29.9941 28.1069 30.3223C27.813 30.6572 27.4268 30.9307 26.9482 31.1426C26.4766 31.3613 25.8716 31.4707 25.1333 31.4707ZM44.9336 27.1641C44.4277 27.0068 43.9971 26.8359 43.6416 26.6514C43.293 26.46 43.0127 26.2515 42.8008 26.0259C42.5957 25.7935 42.459 25.5439 42.3906 25.2773L42.6572 25.4619H41.7139L42.1753 24.1597V18.0073L41.6626 16.8691H41.9497V11.209H45.1899V23.1855C45.1899 23.5889 45.2583 23.8726 45.395 24.0366C45.5317 24.2007 45.7573 24.3408 46.0718 24.457L44.9336 27.1641ZM38.853 27.1641C38.2651 27.1641 37.6841 27.0479 37.1099 26.8154C36.5356 26.583 36.0161 26.2344 35.5513 25.7695C35.0864 25.3047 34.7173 24.7202 34.4438 24.0161C34.1704 23.3052 34.0405 22.4712 34.0542 21.5142C34.0337 20.2495 34.2593 19.1934 34.731 18.3457C35.2026 17.498 35.8179 16.8589 36.5767 16.4282C37.3354 15.9976 38.1284 15.7822 38.9556 15.7822C39.8921 15.7822 40.7192 16.0352 41.437 16.541C42.1616 17.0469 42.729 17.7236 43.1392 18.5713C43.5493 19.4121 43.7578 20.3486 43.7646 21.3809C43.7578 22.4404 43.5391 23.4077 43.1084 24.2827C42.6777 25.1577 42.0933 25.8584 41.355 26.3848C40.6167 26.9043 39.7827 27.1641 38.853 27.1641ZM39.6118 24.457C40.0903 24.4502 40.5142 24.3237 40.8833 24.0776C41.2593 23.8315 41.5532 23.4829 41.7651 23.0317C41.9771 22.5806 42.0864 22.0542 42.0933 21.4526C42.0864 20.8306 41.9771 20.3008 41.7651 19.8633C41.5532 19.4189 41.2661 19.0806 40.9038 18.8481C40.5415 18.6157 40.1313 18.5029 39.6733 18.5098C39.188 18.5029 38.7573 18.6191 38.3813 18.8584C38.0122 19.0908 37.7217 19.4292 37.5098 19.8735C37.2979 20.311 37.1953 20.8374 37.2021 21.4526C37.1953 22.0542 37.291 22.5806 37.4893 23.0317C37.6943 23.4829 37.9814 23.8315 38.3506 24.0776C38.7197 24.3237 39.1401 24.4502 39.6118 24.457Z"/>
<path d="M25.207 39.0938C24.9961 39.0938 24.8164 39.0195 24.668 38.8711C24.5195 38.7227 24.4453 38.543 24.4453 38.332C24.4453 38.1211 24.5195 37.9414 24.668 37.793C24.8164 37.6445 24.9961 37.5703 25.207 37.5703C25.418 37.5703 25.5977 37.6445 25.7461 37.793C25.8945 37.9414 25.9688 38.1211 25.9688 38.332C25.9688 38.543 25.8945 38.7227 25.7461 38.8711C25.5977 39.0195 25.418 39.0938 25.207 39.0938ZM32.6016 39.0938C32.3633 38.9805 32.1719 38.8633 32.0273 38.7422C31.8828 38.6211 31.7773 38.4883 31.7109 38.3438C31.6484 38.1992 31.6172 38.0352 31.6172 37.8516L31.8984 37.9922H31.3242L31.6406 37.3008V34.1719L31.3477 33.5508H31.4766V29.9766H32.4844V37.2773C32.4844 37.5352 32.5176 37.7266 32.584 37.8516C32.6504 37.9766 32.7852 38.0859 32.9883 38.1797L32.6016 39.0938ZM29.4961 39.0938C29.1172 39.0938 28.7578 39.0195 28.418 38.8711C28.082 38.7188 27.7832 38.502 27.5215 38.2207C27.2637 37.9395 27.0605 37.6016 26.9121 37.207C26.7637 36.8125 26.6914 36.3711 26.6953 35.8828C26.6914 35.2266 26.8184 34.6602 27.0762 34.1836C27.334 33.7031 27.6758 33.334 28.1016 33.0762C28.5273 32.8145 28.9922 32.6836 29.4961 32.6836C30.0156 32.6836 30.4766 32.8184 30.8789 33.0879C31.2852 33.3574 31.6035 33.7324 31.834 34.2129C32.0684 34.6934 32.1875 35.25 32.1914 35.8828C32.1875 36.5039 32.0684 37.0566 31.834 37.541C31.6035 38.0254 31.2852 38.4062 30.8789 38.6836C30.4766 38.957 30.0156 39.0938 29.4961 39.0938ZM29.6719 38.1797C30.0391 38.1797 30.3652 38.0801 30.6504 37.8809C30.9395 37.6777 31.166 37.4043 31.3301 37.0605C31.498 36.7129 31.582 36.3203 31.582 35.8828C31.582 35.4102 31.4941 35.0039 31.3184 34.6641C31.1465 34.3203 30.916 34.0566 30.627 33.873C30.3379 33.6895 30.0195 33.5977 29.6719 33.5977C29.293 33.5977 28.9551 33.6953 28.6582 33.8906C28.3652 34.082 28.1348 34.3496 27.9668 34.6934C27.8027 35.0371 27.7227 35.4336 27.7266 35.8828C27.7227 36.3203 27.8027 36.7129 27.9668 37.0605C28.1348 37.4043 28.3652 37.6777 28.6582 37.8809C28.9551 38.0801 29.293 38.1797 29.6719 38.1797ZM36.9023 39.0938C36.3203 39.0938 35.8027 38.9629 35.3496 38.7012C34.9004 38.4355 34.5469 38.0625 34.2891 37.582C34.0312 37.1016 33.9023 36.5352 33.9023 35.8828C33.9023 35.2344 34.0273 34.6719 34.2773 34.1953C34.5273 33.7188 34.8672 33.3496 35.2969 33.0879C35.7305 32.8262 36.2188 32.6953 36.7617 32.6953C37.2969 32.6953 37.7695 32.8184 38.1797 33.0645C38.5898 33.3066 38.9102 33.6426 39.1406 34.0723C39.375 34.502 39.4922 34.9922 39.4922 35.543C39.4922 35.7109 39.4824 35.8613 39.4629 35.9941C39.4473 36.127 39.4336 36.2266 39.4219 36.293H34.6641V35.4727H38.5078C38.5078 35.1367 38.4375 34.8301 38.2969 34.5527C38.1562 34.2715 37.9551 34.0488 37.6934 33.8848C37.4316 33.7168 37.1211 33.6328 36.7617 33.6328C36.3945 33.6328 36.0703 33.7266 35.7891 33.9141C35.5078 34.1016 35.2871 34.3652 35.127 34.7051C34.9668 35.041 34.8867 35.4336 34.8867 35.8828C34.8867 36.3359 34.9707 36.7344 35.1387 37.0781C35.3066 37.418 35.5449 37.6836 35.8535 37.875C36.1621 38.0625 36.5273 38.1562 36.9492 38.1562C37.1992 38.1562 37.4258 38.125 37.6289 38.0625C37.8359 37.9961 38.0176 37.916 38.1738 37.8223C38.334 37.7246 38.4688 37.6289 38.5781 37.5352L38.9648 38.4492C38.7266 38.625 38.4277 38.7773 38.0684 38.9062C37.7129 39.0312 37.3242 39.0938 36.9023 39.0938ZM42.457 39L40.0078 32.7891H41.1445L42.3867 36.3398L42.9141 37.8047H42.9609L43.4883 36.3398L44.7422 32.7891H45.8672L43.418 39H42.457Z"/>
</svg>
